<?xml version="1.0" encoding="utf-8"?>
<!-- Svg Vector Icons : http://www.onlinewebfonts.com/icon -->
<!DOCTYPE svg PUBLIC "-//W3C//DTD SVG 1.1//EN" "http://www.w3.org/Graphics/SVG/1.1/DTD/svg11.dtd">
<svg version="1.1" xmlns="http://www.w3.org/2000/svg" xmlns:xlink="http://www.w3.org/1999/xlink" x="0px" y="0px" viewBox="0 0 1000 1000" enable-background="new 0 0 1000 1000" xml:space="preserve">
<metadata> Svg Vector Icons : http://www.onlinewebfonts.com/icon </metadata>
<g><g><path d="M990,622.5v105c0,4.7-1.7,8.8-5.2,12.3c-3.5,3.5-7.6,5.2-12.3,5.2H220v105c0,4.7-1.7,8.8-5.2,12.3c-3.5,3.5-7.6,5.2-12.3,5.2c-4.4,0-8.7-1.8-13.1-5.5L14.9,687c-3.3-3.3-4.9-7.3-4.9-12c0-5.1,1.6-9.3,4.9-12.6l175-175c3.3-3.3,7.5-4.9,12.6-4.9c4.7,0,8.8,1.7,12.3,5.2c3.5,3.5,5.2,7.6,5.2,12.3v105h752.5c4.7,0,8.8,1.7,12.3,5.2C988.3,613.7,990,617.8,990,622.5L990,622.5z M990,325c0,5.1-1.6,9.3-4.9,12.6l-175,175c-3.3,3.3-7.5,4.9-12.6,4.9c-4.7,0-8.8-1.7-12.3-5.2c-3.5-3.5-5.2-7.6-5.2-12.3V395H27.5c-4.7,0-8.8-1.7-12.3-5.2s-5.2-7.6-5.2-12.3v-105c0-4.7,1.7-8.8,5.2-12.3c3.5-3.5,7.6-5.2,12.3-5.2H780V150c0-5.1,1.6-9.3,4.9-12.6c3.3-3.3,7.5-4.9,12.6-4.9c4.4,0,8.8,1.8,13.1,5.5l174.5,174.5C988.4,315.7,990,319.9,990,325L990,325z"/></g></g>
</svg>